<svg id="SvgjsSvg1001" width="288" height="288" xmlns="http://www.w3.org/2000/svg" version="1.1" xmlns:xlink="http://www.w3.org/1999/xlink" xmlns:svgjs="http://svgjs.com/svgjs"><defs id="SvgjsDefs1002"></defs><g id="SvgjsG1008"><svg xmlns="http://www.w3.org/2000/svg" xmlns:bx="https://boxy-svg.com" viewBox="0 0 500 500" width="288" height="288"><path fill-rule="evenodd" d="M 193.857 18.14 C 192.412 18.628 189.253 20.81 186.838 22.99 C 177.509 31.41 23.439 181.35 22.703 182.725 C 19.806 188.138 21.519 196.112 26.374 199.818 L 29.171 201.953 L 47.007 202.189 L 64.844 202.425 L 64.844 287.541 L 64.844 372.656 L 41.152 372.656 L 17.46 372.656 L 15.761 374.464 C 13.642 376.72 13.592 379.217 15.625 381.25 C 18.093 383.718 381.907 383.718 384.375 381.25 C 386.449 379.176 386.352 376.443 384.129 374.355 C 382.355 372.688 381.876 372.656 358.739 372.656 L 335.156 372.656 L 335.156 287.5 L 335.156 202.344 L 353.4 202.344 C 376.038 202.344 379.426 200.839 380.292 190.403 C 380.803 184.244 378.989 181.443 367.659 170.886 C 356.922 160.882 355.275 160.123 352.356 163.833 C 349.7 167.21 350.797 169.11 360.982 178.775 C 375.867 192.899 377.455 192.187 331.058 192.188 L 293.679 192.188 L 291.761 194.105 C 289.544 196.322 289.346 198.16 291.06 200.607 C 292.251 202.308 292.616 202.344 308.638 202.344 L 325 202.344 L 325 276.961 L 325 351.578 L 288.53 351.375 L 252.06 351.172 L 147.953 351.172 L 111.477 351.375 L 75 351.578 L 75 276.961 L 75 202.344 L 92.066 202.344 C 110.752 202.344 111.719 202.108 111.719 197.549 C 111.719 192.365 113.562 192.601 71.235 192.361 C 30.297 192.13 29.906 192.09 31.725 188.387 C 32.891 186.012 195.223 28.902 197.344 28.095 C 203.397 25.794 203.015 25.517 229.999 51.758 C 254.52 75.604 255.603 76.393 258.863 72.79 C 262.384 68.9 261.841 68.191 236.464 43.523 C 208.581 16.419 205.101 14.347 193.857 18.14 M 305.469 34.758 C 294.274 38.414 288.816 47.293 288.4 62.522 L 288.129 72.471 L 285.024 72.887 C 273.87 74.383 272.656 78.03 272.656 110.043 C 272.656 149.313 271.05 147.886 314.844 147.502 C 345.206 147.236 345.523 147.179 350.34 141.14 L 352.734 138.138 L 352.958 110.891 C 353.229 77.944 352.683 75.975 342.512 73.255 L 339.26 72.385 L 338.904 62.531 C 338.132 41.146 323.394 28.904 305.469 34.758 M 320.385 45.568 C 326.425 48.758 328.456 53.164 328.794 63.804 L 329.075 72.656 L 313.674 72.656 L 298.273 72.656 L 298.551 63.348 C 299.027 47.356 308.761 39.43 320.385 45.568 M 318.421 91.325 C 327.305 95.36 329.012 106.35 321.771 112.892 C 320.107 114.395 318.395 115.625 317.966 115.625 C 317.523 115.625 317.188 117.964 317.188 121.049 C 317.188 125.769 316.962 126.632 315.451 127.69 C 311.333 130.575 308.594 127.805 308.594 120.756 C 308.594 116.47 308.371 115.66 307.079 115.25 C 306.246 114.985 304.503 113.56 303.206 112.082 C 293.701 101.257 305.337 85.383 318.421 91.325" transform="matrix(1.27512 0 0 1.27512 -5.398 -6.186)" bx:origin="0 0.499928" fill="#ffffff" class="color000 svgShape"></path><path fill-rule="evenodd" d="M 344.531 10.547 L 344.531 21.094 L 312.5 21.094 L 280.469 21.094 L 280.469 39.063 L 280.469 57.031 L 278.516 57.031 L 276.563 57.031 L 276.563 66.016 L 276.563 75 L 288.672 75 L 300.781 75 L 300.781 66.016 L 300.781 57.031 L 298.438 57.031 L 296.094 57.031 L 296.094 46.484 L 296.094 35.938 L 320.313 35.938 L 344.531 35.938 L 345.619 234.064 L 359.419 234.064 L 359.375 0 L 351.953 0 L 344.531 0 L 344.531 10.547 M 271.484 82.416 C 265.63 84.471 261.719 91.216 261.719 99.257 L 261.719 101.563 L 288.281 101.563 L 314.844 101.563 L 314.839 98.242 C 314.83 90.825 311.67 85.343 305.892 82.718 C 301.775 80.848 276.58 80.627 271.484 82.416 M 261.719 116.406 L 261.719 125 L 288.281 125 L 314.844 125 L 314.844 116.406 L 314.844 107.813 L 288.281 107.813 L 261.719 107.813 L 261.719 116.406 M 261.965 136.306 C 263.167 149.176 267.296 151.563 288.357 151.563 C 309.511 151.563 314.822 148.155 314.839 134.57 L 314.844 131.25 L 288.168 131.25 L 261.493 131.25 L 261.965 136.306" transform="matrix(.75379 0 0 .75379 10.019 121.103)" bx:origin="-2.63499 0.723021" fill="#ffffff" class="color000 svgShape"></path><path fill-rule="evenodd" d="M 132.35 265.884 L 128.704 266.123 L 125.058 266.361 L 124.088 271.135 C 122.871 277.125 120.498 281.911 116.838 285.761 C 111.103 291.793 108.764 292.115 89.973 289.468 C 75.614 287.445 66.612 287.43 45.052 289.393 C 19.494 291.72 -14.205 293.315 -37.69 293.307 C -77.143 293.295 -81.318 291.792 -83.243 276.908 C -83.716 273.255 -84.295 269.3 -84.532 268.118 L -84.961 265.97 L -94.86 265.953 L -104.759 265.936 L -101.243 264.348 C -77.377 253.566 -85.51 217.168 -111.79 217.147 C -138.137 217.126 -147.121 252.299 -123.745 263.948 L -119.687 265.97 L -131.364 265.953 C -144.244 265.934 -147.2 265.181 -151.517 260.819 C -156.524 255.76 -156.556 255.555 -156.844 226.871 C -157.081 203.183 -157.242 200.48 -158.561 198.001 C -166.261 183.529 -185.458 183.529 -193.15 198.001 C -195.587 202.588 -195.38 304.753 -192.924 309.34 C -188.013 318.509 -185.534 319.435 -165.111 319.736 L -148.118 319.986 L -148.148 358.798 L -148.178 397.611 L -151.159 399.67 C -165.285 409.43 -157.791 431.204 -140.306 431.204 C -122.821 431.204 -115.327 409.43 -129.453 399.67 L -132.434 397.611 L -132.464 382.181 L -132.493 366.751 L -12.181 366.751 L 108.132 366.751 L 108.102 382.181 L 108.072 397.611 L 105.091 399.67 C 90.965 409.43 98.459 431.204 115.944 431.204 C 133.429 431.204 140.923 409.43 126.797 399.67 L 123.816 397.611 L 123.786 358.798 L 123.757 319.986 L 140.749 319.736 C 161.074 319.437 164.256 318.223 168.837 309.023 C 171.139 304.401 170.903 280.879 168.51 276.406 C 164.994 269.832 158.279 265.97 150.364 265.97 L 147.194 265.97 M -74.866 224.97 C -81.356 228.598 -82.108 241.837 -77.551 272.212 C -75.56 285.485 -76.023 284.973 -64.86 286.252 C -48.128 288.169 15.26 286.22 49.443 282.739 C 63.862 281.271 79.671 281.305 90.553 282.829 C 95.28 283.49 101.358 284.236 104.059 284.485 L 108.971 284.939 L 112.285 281.48 C 121.685 271.669 120.944 250.71 110.84 240.605 C 104.39 234.156 95.829 231.828 82.35 232.86 C 68.932 233.888 38.498 233.694 30.788 232.533 C 27.135 231.983 20.632 230.844 16.335 230.002 C -1.573 226.493 -6.933 226.019 -36.79 225.301 C -53.118 224.909 -67.884 224.405 -69.603 224.181 C -71.631 223.917 -73.479 224.194 -74.866 224.97 M 108.132 335.501 L 108.132 351.126 L -12.181 351.126 L -132.493 351.126 L -132.493 335.501 L -132.493 319.876 L -12.181 319.876 L 108.132 319.876 L 108.132 335.501" transform="matrix(.75379 0 0 .75379 268.17 117.244)" bx:origin="-0.394558 -0.052425" fill="#ffffff" class="color000 svgShape"></path></svg></g></svg>